<?xml version="1.0" encoding="utf-8"?>
<!-- Generator: Adobe Illustrator 26.0.1, SVG Export Plug-In . SVG Version: 6.00 Build 0)  -->
<svg version="1.1" id="Layer_1" xmlns="http://www.w3.org/2000/svg" xmlns:xlink="http://www.w3.org/1999/xlink" x="0px" y="0px"
	 viewBox="0 0 1080 946.43" style="enable-background:new 0 0 1080 946.43;" xml:space="preserve">
<style type="text/css">
	.st0{fill:#1A1AFF;}
	.st1{fill:url(#SVGID_1_);}
	.st2{fill:url(#SVGID_00000052810537150316021390000008574380017801909922_);}
	.st3{fill:url(#SVGID_00000087384146386937365520000013688051247925443495_);}
	.st4{fill:url(#SVGID_00000156553046814082933870000004450749412946962359_);}
	.st5{fill:url(#SVGID_00000076581754747217765610000002878761351625116293_);}
	.st6{fill:url(#SVGID_00000088839023495465567190000015798950804556726183_);}
	.st7{fill:url(#SVGID_00000005974507144512598530000011008465338789391287_);}
	.st8{fill:url(#SVGID_00000089537925783821042320000011494643187421181097_);}
</style>
<g>
	<path class="st0" d="M796.17,396.36c0,0-0.03,0.03-0.13,0.06v-0.1L796.17,396.36z"/>
	<g>
		<linearGradient id="SVGID_1_" gradientUnits="userSpaceOnUse" x1="605.5508" y1="683.4125" x2="705.6148" y2="524.7744">
			<stop  offset="0" style="stop-color:#CF88FF"/>
			<stop  offset="1" style="stop-color:#B569FF"/>
		</linearGradient>
		<path class="st1" d="M765.07,611.08c-55.51,32.98-204.24,117.96-204.24,117.96V615.45c0-50.31,26.19-96.96,69.14-123.15
			c11.57-6.69,22.53-13.06,32.91-19.09c22.81,13.16,49.07,28.23,49.07,28.23C741.65,518.71,787.31,563.07,765.07,611.08z"/>
		
			<linearGradient id="SVGID_00000013171726895254435190000017057262115056621981_" gradientUnits="userSpaceOnUse" x1="560.8262" y1="414.2339" x2="843.7718" y2="414.2339">
			<stop  offset="0" style="stop-color:#6666FF"/>
			<stop  offset="1" style="stop-color:#1919FF"/>
		</linearGradient>
		<path style="fill:url(#SVGID_00000013171726895254435190000017057262115056621981_);" d="M765.87,336.01
			c-84.98-49.2-205.04-118.63-205.04-118.63v113.56c0,50.76,26.67,97.79,70.26,123.85c3.92,2.36,17.14,10.01,31.8,18.42
			c22.81,13.16,49.07,28.23,49.07,28.23c29.7,17.27,75.36,61.62,53.12,109.64c1.12-0.67,2.23-1.34,3.25-1.94
			c0.8-0.48,1.59-0.99,2.39-1.53c45.44-29.35,73.06-79.85,73.06-134.27C843.77,417.04,814.2,364.91,765.87,336.01z M796.04,396.33
			l0.13,0.03c0,0-0.03,0.03-0.13,0.06V396.33z"/>
	</g>
	<g>
		
			<linearGradient id="SVGID_00000093166278664080047060000012586821106057992115_" gradientUnits="userSpaceOnUse" x1="-37.0739" y1="683.4124" x2="62.9901" y2="524.7743" gradientTransform="matrix(-1 0 0 -1 437.3753 946.4255)">
			<stop  offset="0" style="stop-color:#CF88FF"/>
			<stop  offset="1" style="stop-color:#B569FF"/>
		</linearGradient>
		<path style="fill:url(#SVGID_00000093166278664080047060000012586821106057992115_);" d="M314.93,335.34
			c55.51-32.98,204.24-117.96,204.24-117.96v113.59c0,50.31-26.19,96.96-69.14,123.15c-11.57,6.69-22.53,13.06-32.91,19.09
			c-22.81-13.16-49.07-28.23-49.07-28.23C338.35,427.71,292.69,383.36,314.93,335.34z"/>
		
			<linearGradient id="SVGID_00000044887315287156652520000004443853932647318701_" gradientUnits="userSpaceOnUse" x1="-81.7984" y1="414.2339" x2="201.1471" y2="414.2339" gradientTransform="matrix(-1 0 0 -1 437.3753 946.4255)">
			<stop  offset="0" style="stop-color:#6666FF"/>
			<stop  offset="1" style="stop-color:#1919FF"/>
		</linearGradient>
		<path style="fill:url(#SVGID_00000044887315287156652520000004443853932647318701_);" d="M314.13,610.42
			c84.98,49.2,205.04,118.63,205.04,118.63V615.48c0-50.76-26.67-97.79-70.26-123.85c-3.92-2.36-17.14-10.01-31.8-18.42
			c-22.81-13.16-49.07-28.23-49.07-28.23c-29.7-17.27-75.36-61.62-53.12-109.64c-1.12,0.67-2.23,1.34-3.25,1.94
			c-0.8,0.48-1.59,0.99-2.39,1.53c-45.44,29.35-73.06,79.85-73.06,134.27C236.23,529.39,265.8,581.52,314.13,610.42z M283.96,550.1
			l-0.13-0.03c0,0,0.03-0.03,0.13-0.06V550.1z"/>
	</g>
	<path class="st0" d="M765.07,611.08c1.12-0.67,2.23-1.34,3.25-1.94c-1.08,0.7-2.17,1.37-3.28,2.01
		C765.04,611.12,765.07,611.12,765.07,611.08z"/>
	<path class="st0" d="M796.17,396.36c0,0-0.03,0.03-0.13,0.06v-0.1L796.17,396.36z"/>
</g>
</svg>
